<mxfile host="www.draw.io" modified="2019-11-12T06:04:07.625Z" agent="Mozilla/5.0 (Windows NT 6.1; Win64; x64) AppleWebKit/537.36 (KHTML, like Gecko) Chrome/78.0.3904.87 Safari/537.36" etag="qpCwI6FPl5CIFk8ShNiZ" version="12.2.3" type="github" pages="1">
  <diagram id="Y1j2JxJSHhob4d7eZwC8" name="Page-1">
    <mxGraphModel dx="1088" dy="568" grid="1" gridSize="10" guides="1" tooltips="1" connect="1" arrows="1" fold="1" page="1" pageScale="1" pageWidth="827" pageHeight="1169" math="0" shadow="0">
      <root>
        <mxCell id="0"/>
        <mxCell id="1" parent="0"/>
        <mxCell id="hMOkE8ZEHIGKDhf6UQd2-1" value="Object" style="html=1;" vertex="1" parent="1">
          <mxGeometry x="60" y="40" width="110" height="50" as="geometry"/>
        </mxCell>
      </root>
    </mxGraphModel>
  </diagram>
</mxfile>
